<svg xmlns="http://www.w3.org/2000/svg" version="1.0" width="700.000000pt" height="700.000000pt" viewBox="0 0 700.000000 700.000000" preserveAspectRatio="xMidYMid meet" data-ember-extension="1">
<metadata>
Created by potrace 1.11, written by Peter Selinger 2001-2013
</metadata>
<g transform="translate(0.000000,700.000000) scale(0.100000,-0.100000)" fill="#000000" stroke="none">
<path d="M6190 6765 c-25 -6 -362 -128 -750 -270 -388 -141 -752 -274 -810 -295 -185 -67 -334 -121 -385 -140 -47 -18 -406 -149 -525 -192 -30 -11 -203 -74 -385 -140 -181 -66 -370 -135 -420 -153 -565 -204 -1264 -458 -1280 -465 -11 -5 -64 -25 -118 -44 l-98 -35 -63 38 c-79 49 -225 125 -342 178 -112 52 -151 51 -309 -5 -495 -176 -517 -185 -546 -218 -34 -39 -48 -80 -45 -135 4 -87 47 -149 116 -170 44 -13 43 -14 413 115 l188 65 220 -109 219 -110 673 -1008 c369 -554 675 -1017 679 -1030 12 -41 27 -450 44 -1150 6 -286 12 -314 79 -369 64 -53 139 -61 245 -24 30 11 168 61 305 111 138 51 286 105 330 121 129 46 229 82 410 149 94 34 224 81 290 105 135 48 389 140 605 220 127 47 870 317 1005 366 95 34 650 237 676 247 14 6 39 26 57 46 105 120 1 322 -156 303 -26 -3 -141 -40 -257 -82 -115 -42 -273 -99 -350 -126 -77 -28 -243 -88 -370 -134 -126 -46 -302 -109 -390 -140 -88 -31 -169 -60 -180 -65 -36 -15 -100 -38 -428 -156 -356 -129 -543 -196 -842 -304 -231 -84 -365 -132 -522 -188 l-113 -41 -1 117 c0 64 -3 223 -6 352 -2 129 -6 313 -6 409 l-2 174 285 104 c390 142 1834 668 1945 708 97 35 378 138 590 215 232 85 407 148 572 208 90 33 173 67 187 75 40 27 70 103 70 177 0 56 -9 191 -19 270 -1 14 -6 57 -9 95 -4 39 -9 88 -12 110 -2 22 -7 63 -9 90 -3 28 -8 66 -10 85 -2 19 -7 64 -10 100 -3 36 -8 76 -10 90 -2 14 -7 57 -10 95 -3 39 -8 81 -10 95 -2 14 -6 56 -10 93 -3 37 -8 76 -10 85 -1 9 -6 53 -9 97 -4 44 -9 87 -11 95 -2 8 -7 51 -10 95 -4 44 -8 82 -10 85 -2 3 -6 41 -10 85 -4 44 -8 91 -10 105 -1 14 -6 54 -10 90 -3 36 -8 76 -10 90 -2 14 -7 54 -11 90 -3 36 -8 76 -9 90 -2 14 -6 52 -9 85 -4 33 -9 78 -12 100 -7 59 -12 103 -19 165 -19 174 -109 253 -245 215z m-126 -492 c8 -63 14 -115 21 -183 6 -60 14 -130 20 -170 3 -14 7 -54 10 -90 3 -36 8 -76 10 -90 2 -14 7 -54 10 -90 4 -36 9 -77 11 -91 1 -15 6 -55 9 -90 3 -35 8 -75 10 -89 2 -14 6 -54 10 -90 4 -36 8 -76 10 -90 2 -14 7 -54 10 -90 3 -36 8 -76 10 -90 2 -14 7 -54 10 -90 4 -36 8 -72 10 -81 2 -8 6 -49 10 -90 4 -40 8 -76 10 -79 1 -3 6 -45 10 -95 4 -49 8 -92 10 -95 2 -3 6 -39 9 -80 4 -41 10 -100 14 -130 15 -110 46 -88 -313 -222 -176 -66 -330 -125 -343 -131 -14 -6 -26 -7 -31 -1 -4 5 -36 86 -70 179 -34 94 -71 193 -81 220 -10 28 -34 93 -53 145 -93 254 -192 524 -224 610 -19 52 -69 187 -110 300 -41 113 -99 272 -129 354 -30 82 -53 150 -52 151 4 4 1162 433 1170 434 3 1 9 -20 12 -46z m-1527 -515 c1 -7 49 -143 108 -303 58 -159 138 -375 176 -480 39 -104 79 -212 89 -240 10 -27 55 -151 100 -275 45 -124 85 -234 90 -245 13 -29 120 -323 135 -371 l13 -40 -117 -41 c-136 -48 -213 -76 -571 -208 -146 -53 -306 -112 -356 -131 l-92 -33 -70 192 c-39 106 -118 323 -177 482 -59 160 -110 301 -115 315 -5 14 -56 156 -115 315 -59 160 -118 319 -131 355 -28 79 -43 119 -83 228 -22 60 -27 84 -18 87 6 2 91 33 187 68 96 36 220 81 275 101 55 19 222 80 370 135 149 55 277 100 286 100 9 1 16 -5 16 -11z m-1468 -608 c12 -36 26 -74 31 -85 5 -11 62 -164 126 -340 137 -375 246 -675 413 -1129 67 -182 118 -333 114 -336 -5 -4 -91 -37 -193 -74 -102 -37 -219 -80 -260 -96 -41 -16 -120 -45 -175 -65 -55 -20 -121 -44 -146 -54 l-47 -19 -299 447 c-442 657 -888 1324 -896 1337 -6 11 89 48 803 309 190 69 379 139 420 154 41 16 78 26 81 22 3 -3 16 -35 28 -71z"/>
<path d="M6249 2175 c-152 -41 -273 -162 -330 -326 -25 -74 -35 -231 -18 -294 71 -267 376 -423 641 -329 447 157 435 804 -17 943 -77 24 -202 27 -276 6z m235 -308 c80 -44 116 -174 69 -247 -88 -135 -259 -130 -330 10 -39 75 -26 146 37 207 63 62 146 73 224 30z"/>
<path d="M3490 1163 c-160 -13 -296 -105 -374 -254 -46 -85 -66 -166 -67 -259 -1 -97 6 -132 41 -207 51 -109 159 -204 285 -249 71 -25 219 -27 293 -5 128 40 238 124 296 227 91 163 82 385 -23 538 -95 138 -278 223 -451 209z m148 -327 c94 -49 121 -181 55 -264 -35 -44 -104 -82 -150 -82 -135 0 -231 164 -162 276 21 35 74 79 104 87 31 9 124 -2 153 -17z"/>
</g>
<auto-scroll xmlns="http://www.w3.org/1999/xhtml"></auto-scroll></svg>
